


<svg version="1.1" id="레이어_1" xmlns="http://www.w3.org/2000/svg" xmlns:xlink="http://www.w3.org/1999/xlink" x="0px" y="0px" width="1000px" height="188.326px" viewBox="0 0 1000 188.326" enable-background="new 0 0 1000 188.326" xml:space="preserve">
<g id="_x23_673398ff">
	<path fill="#673398" d="M97.698,0.549h0.817l-2.583,0.253c16.083,0.089,32.187,4.004,46.293,11.79
		c18.295,9.977,33.176,26.092,41.594,45.167c5.506,12.447,8.407,26.08,8.116,39.705c0.076,22.109-8.216,44.032-22.482,60.878
		c-20.6,2.609-41.936,4.193-62.233-1.204c-12.041-2.995-22.748-10.763-29.601-21.075c-6.961-12.321-4.58-29.375,5.974-38.951
		c7.347-6.666,17.952-9.522,27.651-7.356c8.583,1.755,16.209,7.348,20.613,14.906c4.3-2.261,8.57-4.58,12.878-6.83
		c-3.035-5.104-6.778-9.849-11.46-13.542c-7.873-6.234-17.857-9.616-27.866-9.896c-9.497-0.113-19.018,2.724-26.827,8.147
		C62.718,93.32,54.87,114.713,60.354,133.141c3.503,12.505,12.688,22.78,23.408,29.749c8.526,5.479,18.401,8.45,28.302,10.243
		c13.607,2.407,27.5,1.52,41.184,0.354c-1.375,1.412-3.441,1.33-5.247,1.653c-14.6,2.166-29.659,2.236-44.088-1.152
		c-13.843-3.207-27.025-10.035-36.856-20.403c-14.45-15.604-17.833-40.963-6.48-59.225c5.929-9.724,14.626-18.085,25.44-22.057
		c11.807-4.403,25.256-4.358,37,0.234c1.932-4.479,4.035-8.881,5.93-13.373c-19.372-7.918-42.513-5.866-60.104,5.511
		c-9.628,6.228-17.553,14.938-23.317,24.826c-6.423,11.371-8.502,24.939-6.539,37.793c2.591,17.332,12.062,33.555,25.947,44.262
		c6.753,5.333,14.736,8.925,22.952,11.352c10.618,3.155,21.695,4.528,32.751,4.781c1.564,0.025,3.134,0.089,4.693,0.285
		c-2.224,1.154-4.801,0.806-7.216,0.877c-13.132,0.271-26.365-1.77-38.68-6.368c-9.369-3.528-18.212-8.793-25.16-16.064
		c-7.292-7.241-13.423-15.812-16.978-25.505c-4.174-11.472-5.48-24.084-3.244-36.114c2.711-14.31,10.883-27.175,21.584-36.893
		c12.833-11.726,30.21-18.384,47.605-18.099c0.006-4.916-0.007-9.838,0.013-14.753c-15.014,0.006-30.034,3.927-43.014,11.504
		c-17.154,9.977-30.635,26.01-37.788,44.496c-5.25,13.848-7.214,29.279-3.649,43.79c4.081,17.726,15.337,33.499,30.415,43.584
		c2.349,1.724,5.035,2.921,7.342,4.714c-1.065-0.07-2.147-0.197-3.105-0.703c-4.859-2.326-9.4-5.258-13.715-8.477
		c-7.765-5.872-15.088-12.518-20.645-20.568c-6.948-9.648-12.429-20.45-15.456-31.984c-2.877-10.668-3.528-21.831-2.769-32.82
		c1.832-23.565,12.93-46.218,30.317-62.214c14.146-13.15,32.341-21.873,51.484-24.54C87.645,1.037,92.7,1.113,97.698,0.549z"></path>
	<path fill="#673398" d="M241.035,40.755c14.981,0.038,29.969,0.007,44.952,0.019c7.602,0.07,15.272-0.399,22.784,1.046
		c6.557,1.166,13.24,3.699,17.731,8.83c4.814,5.233,6.373,12.613,6.239,19.542c0.007,5.739-1.533,11.694-5.321,16.129
		c-2.774,3.37-6.442,5.917-10.337,7.823c6.132,1.711,11.973,5.174,15.666,10.46c5.163,7.214,6.316,16.584,5.111,25.199
		c-1.063,7.98-5.726,15.292-12.277,19.915c-7.639,5.378-17.078,7.57-26.294,7.945c-19.429,0.005-38.858,0.019-58.288-0.008
		C241.015,118.69,240.951,79.721,241.035,40.755 M266.208,60.881c0.007,9.015,0.007,18.035,0,27.049
		c8.709,0.044,17.414,0,26.125,0.025c4.213,0.058,8.665-1.063,11.846-3.958c3.205-2.99,3.819-7.722,3.402-11.877
		c-0.26-3.364-2.053-6.626-4.942-8.433c-3.598-2.318-8.024-2.761-12.206-2.818C282.356,60.887,274.279,60.869,266.208,60.881
		 M266.208,105.744c0.007,10.591,0.007,21.175,0.007,31.769c9.54,0.037,19.081,0.011,28.625,0.011
		c4.189-0.145,8.565-0.866,12.101-3.273c3.129-2.129,5.048-5.746,5.371-9.476c0.412-4.258-0.031-8.87-2.399-12.539
		c-3.187-4.58-9.04-6.313-14.374-6.499C285.763,105.718,275.983,105.712,266.208,105.744z"></path>
	<path fill="#673398" d="M437.233,40.781c30.832-0.025,61.664,0.006,92.5-0.013c0.006,7.241,0.013,14.481-0.007,21.722
		c-11.086-0.019-22.171-0.012-33.258-0.006c-0.011,31.724,0,63.448-0.005,95.173c-8.665,0.026-17.325,0.019-25.992,0
		c0.044-31.725-0.019-63.442,0.032-95.167c-11.093-0.032-22.184,0.013-33.276-0.019C437.259,55.244,437.253,48.015,437.233,40.781z"></path>
	<path fill="#673398" d="M352.019,40.787c7.817-0.032,15.634-0.006,23.451-0.013c-0.005,6.443,0.013,12.885-0.013,19.328
		c-7.817,0.025-15.634,0.006-23.443,0.012C352.037,53.671,352.019,47.229,352.019,40.787z"></path>
	<path fill="#673398" d="M398.104,47.559c7.824,0.025,15.652,0.032,23.477,0c0.019,8.451-0.032,16.9,0.026,25.352
		c5.636,0.006,11.274,0.013,16.913-0.007c0.013,5.239-0.024,10.479,0.013,15.717c-5.651,0.013-11.295,0.006-16.946,0.006
		c0,14.355-0.019,28.709,0.007,43.063c0.126,2.522,0.412,5.657,2.749,7.158c2.415,1.318,5.29,1.399,7.982,1.368
		c3.801-0.342,7.62-0.362,11.434-0.622c-0.006,6.045,0.005,12.095-0.006,18.138c-7.989,0.651-16.009,0.855-24.015,0.628
		c-6.265-0.418-13.227-1.646-17.51-6.684c-3.338-3.686-4.073-8.849-4.129-13.633c0-16.477,0.006-32.946,0-49.423
		c-4.688,0.006-9.375,0.006-14.063,0.006c0.013-5.245-0.032-10.484,0.026-15.729c4.667,0.033,9.342,0.013,14.018,0.013
		C398.129,64.459,398.078,56.01,398.104,47.559z"></path>
	<path fill="#673398" d="M920.086,47.559c7.823,0.025,15.64,0.032,23.464,0c0.051,8.451-0.02,16.907,0.032,25.358
		c5.636-0.006,11.274,0,16.92-0.013c-0.008,5.233-0.021,10.465,0.019,15.698c-5.657,0.05-11.308,0.006-16.959,0.025
		c0,13.715,0.013,27.436-0.006,41.15c-0.019,2.966-0.089,6.392,2.098,8.696c2.313,1.641,5.302,1.686,8.032,1.756
		c4.01-0.278,8.026-0.398,12.048-0.64c0,6.037,0.014,12.068-0.005,18.104c-7.78,0.724-15.603,0.843-23.409,0.705
		c-5.935-0.33-12.32-1.317-16.931-5.393c-3.827-3.444-5.303-8.702-5.303-13.714c-0.007-16.888-0.007-33.776,0-50.665
		c-4.695-0.006-9.389,0.006-14.082,0c0.031-5.245-0.013-10.484,0.024-15.723c4.675,0.026,9.357,0,14.032,0.007
		C920.11,64.459,920.061,56.01,920.086,47.559z"></path>
	<path fill="#673398" d="M544.163,71.321c9.174-1.299,18.828-0.799,27.467,2.768c8.704,3.414,16.072,10.11,20.222,18.491
		c4.827,9.578,5.859,20.714,4.441,31.236c-1.47,10.712-6.761,21.178-15.578,27.65c-9.205,6.88-21.151,9.116-32.421,8.185
		c-10.73-0.685-21.469-5.168-28.608-13.36c-6.441-7.315-9.812-16.97-10.376-26.624c-0.829-11.346,1.426-23.317,8.242-32.636
		C523.804,78.447,533.731,72.917,544.163,71.321 M547.268,89.001c-6.549,1.755-11.376,7.59-13.101,13.986
		c-1.963,7.304-2.109,15.083-0.569,22.482c1.128,5.315,3.73,10.629,8.329,13.758c4.328,3.104,9.99,3.53,15.104,2.764
		c5.84-0.855,10.959-4.953,13.321-10.332c3.174-6.963,3.547-14.906,2.725-22.411c-0.635-6.069-2.688-12.379-7.45-16.459
		C560.755,88.304,553.502,87.524,547.268,89.001z"></path>
	<path fill="#673398" d="M630.005,88.786c4.436-10.965,16.027-18.548,27.86-18.086c-0.006,7.298,0.019,14.602-0.013,21.899
		c-5.752-0.494-11.934-0.082-16.881,3.179c-4.922,2.959-7.793,8.396-8.938,13.881c-1.286,5.556-0.881,11.281-0.938,16.933
		c0.007,10.357-0.012,20.708,0.007,31.065c-7.816,0.026-15.634,0.019-23.451,0c0.006-28.254,0.006-56.506-0.007-84.759
		c7.449,0.026,14.894,0.033,22.343,0C630.018,78.193,629.986,83.49,630.005,88.786z"></path>
	<path fill="#673398" d="M690.868,88.887c4.423-10.965,15.959-18.586,27.798-18.206c0.031,7.304,0.007,14.607,0.013,21.912
		c-6.037-0.514-12.612,0.006-17.623,3.749c-5.289,3.675-7.88,10.085-8.615,16.295c-0.911,7.783-0.404,15.64-0.532,23.456
		c0,7.185-0.012,14.374,0.007,21.563c-7.772,0.026-15.547,0.019-23.312,0c-0.013-28.246-0.031-56.493,0.006-84.746
		c7.399-0.007,14.791,0.02,22.19-0.007C690.857,78.231,690.729,83.56,690.868,88.887z"></path>
	<path fill="#673398" d="M738.982,79.194c7.728-5.865,17.503-8.863,27.194-8.489c11.289-0.259,22.597,4.701,29.831,13.417
		c8.411,10.187,11.61,23.997,10.502,36.982c-20.34-0.063-40.675-0.094-61.01,0.014c0.462,5.522,1.412,11.497,5.353,15.704
		c4.391,4.625,11.174,5.809,17.295,5.435c6.828-0.457,13.765-4.416,16.482-10.895c6.842-0.008,13.683,0.011,20.523-0.008
		c-2.058,6.537-5.219,12.873-10.027,17.832c-6.771,6.753-16.382,9.972-25.781,10.522c-10.004,0.722-20.442-1.14-28.956-6.633
		c-7.646-4.948-13.126-12.828-15.844-21.456c-2.559-8.101-3.002-16.823-1.653-25.199C724.672,95.798,730.228,85.631,738.982,79.194
		 M749.991,94.588c-2.888,3.168-3.883,7.449-4.504,11.568c12.567,0.036,25.144,0.089,37.711-0.02
		c-1.325-6.265-3.774-13.431-10.066-16.262C765.46,86.866,755.49,87.987,749.991,94.588z"></path>
	<path fill="#673398" d="M853,73.506c6.659-3.06,14.222-3.326,21.374-2.293c6.227,0.899,12.474,3.617,16.471,8.627
		c3.852,4.739,5.39,10.877,6.049,16.832c0.679,5.101,0.356,10.249,0.431,15.382c-0.006,15.203,0.007,30.399-0.006,45.603
		c-7.778,0.013-15.552,0.037-23.33-0.013c0.024-16.262,0.031-32.517,0.006-48.771c-0.229-5.386-0.659-11.251-4.093-15.666
		c-3.344-3.979-9.053-4.359-13.859-3.865c-4.885,0.394-9.712,3.085-11.859,7.616c-2.914,6.048-2.964,12.954-2.945,19.529
		c-0.007,13.729,0,27.448-0.007,41.177c-7.81,0.011-15.621,0.011-23.431,0c0.005-28.262-0.014-56.514,0.005-84.773
		c7.437,0.039,14.873,0.039,22.317,0.006c0.05,4.042-0.045,8.09,0.058,12.131C843.238,80.068,847.54,75.742,853,73.506z"></path>
	<path fill="#673398" d="M352.031,72.923c7.812-0.026,15.615,0.007,23.425-0.013c0.034,28.246,0,56.5,0.021,84.746
		c-7.817,0.026-15.641,0.019-23.458,0.008C352.037,129.417,352.005,101.171,352.031,72.923z"></path>
	<path fill="#673398" d="M964.777,73.247c4.796,0.019,9.598,0.006,14.398,0.006c-0.013,1.21-0.019,2.42-0.006,3.629
		c-1.735,0.007-3.459,0.007-5.176-0.019c-0.045,3.813-0.006,7.627-0.037,11.441c-1.338-0.007-2.656-0.013-3.966-0.013
		c-0.008-3.807,0.037-7.615-0.008-11.416c-1.754,0.013-3.496,0.02-5.231,0.006C964.746,75.673,964.758,74.457,964.777,73.247z"></path>
	<path fill="#673398" d="M981.229,73.247c1.869,0,3.743,0.006,5.633-0.007c1.386,3.256,2.678,6.557,4.034,9.825
		c1.394-3.256,2.667-6.563,4.074-9.818c1.861,0.006,3.725,0.006,5.604-0.007c0.013,5.018-0.006,10.035,0,15.051
		c-1.284-0.006-2.57-0.006-3.833-0.006c-0.019-2.997-0.023-5.993,0-8.989c-1.272,2.965-2.482,5.955-3.68,8.945
		c-1.418,0.05-2.838,0.063-4.237,0.044c-1.286-3.06-2.483-6.157-3.832-9.191c0.05,3.06,0.063,6.125,0.024,9.185
		c-1.273,0.007-2.528,0.02-3.775,0.026C981.223,83.287,981.241,78.264,981.229,73.247z"></path>
</g>
</svg>
